<?xml version="1.0" encoding="iso-8859-1"?>
<!-- Generator: Adobe Illustrator 18.1.1, SVG Export Plug-In . SVG Version: 6.00 Build 0)  -->
<svg version="1.1" id="Capa_1" xmlns="http://www.w3.org/2000/svg" xmlns:xlink="http://www.w3.org/1999/xlink" x="0px" y="0px"
	 viewBox="0 0 39.352 39.352" style="enable-background:new 0 0 39.352 39.352;" xml:space="preserve">
<g>
	<path style="fill:white;" d="M27.929,2.565c0,1.417-1.446,2.565-3.23,2.565H14.654c-1.784,0-3.23-1.103-3.23-2.464
		s-1.446-2.464-3.23-2.464H4.358c-1.784,0-3.23,1.446-3.23,3.23v32.69c0,1.784,1.446,3.23,3.23,3.23h3.836
		c1.784,0,3.23-1.069,3.23-2.388s1.446-2.388,3.23-2.388h10.044c1.784,0,3.23,1.024,3.23,2.287s1.446,2.287,3.23,2.287h3.836
		c1.784,0,3.23-1.446,3.23-3.23V3.23c0-1.784-1.446-3.23-3.23-3.23h-3.836C29.375,0,27.929,1.149,27.929,2.565z M6.275,2.695
		c1.345,0,2.435,0.545,2.435,1.218v1.218c0,0,0,0.545,0,1.218S8.199,7.567,7.568,7.567H6.426c0,0-0.579,0-1.293,0
		c-0.714,0-1.293-1.09-1.293-2.435S4.93,2.695,6.275,2.695z M5.133,12.336h1.293c0,0,0.511,0,1.142,0s1.142,1.09,1.142,2.435
		s-0.511,2.435-1.142,2.435H6.426c0,0-0.579,0-1.293,0c-0.714,0-1.293-1.09-1.293-2.435S4.419,12.336,5.133,12.336z M5.133,21.977
		h1.293c0,0,0.511,0,1.142,0s1.142,1.09,1.142,2.435s-0.511,2.435-1.142,2.435H6.426c0,0-0.579,0-1.293,0
		c-0.714,0-1.293-1.09-1.293-2.435S4.419,21.977,5.133,21.977z M6.275,36.489c-1.345,0-2.435-1.09-2.435-2.435
		s0.579-2.435,1.293-2.435h1.293c0,0,0.511,0,1.142,0s1.142,0.662,1.142,1.479v1.479c0,0,0,0.428,0,0.956S7.621,36.489,6.275,36.489
		z M22.918,28.501h-6.634c-1.784,0-3.23-1.446-3.23-3.23v-0.203c0-1.784,1.446-3.23,3.23-3.23h6.634c1.784,0,3.23,1.446,3.23,3.23
		v0.203C26.148,27.055,24.702,28.501,22.918,28.501z M22.918,17.363h-6.634c-1.784,0-3.23-1.446-3.23-3.23V13.93
		c0-1.784,1.446-3.23,3.23-3.23h6.634c1.784,0,3.23,1.446,3.23,3.23v0.203C26.148,15.917,24.702,17.363,22.918,17.363z
		 M33.077,36.489c-1.345,0-2.435-0.428-2.435-0.956v-0.956c0,0,0-0.662,0-1.479s0.545-1.479,1.218-1.479h1.218c0,0,0.545,0,1.218,0
		s1.218,1.09,1.218,2.435C35.512,35.398,34.422,36.489,33.077,36.489z M34.295,26.848h-1.218c0,0-0.545,0-1.218,0
		s-1.218-1.09-1.218-2.435s0.545-2.435,1.218-2.435h1.218c0,0,0.545,0,1.218,0s1.218,1.09,1.218,2.435S34.967,26.848,34.295,26.848z
		 M34.295,17.207h-1.218c0,0-0.545,0-1.218,0s-1.218-1.09-1.218-2.435s0.545-2.435,1.218-2.435h1.218c0,0,0.545,0,1.218,0
		s1.218,1.09,1.218,2.435S34.967,17.207,34.295,17.207z M34.295,7.566h-1.218c0,0-0.545,0-1.218,0s-1.218-0.545-1.218-1.218V5.13
		c0,0,0-0.545,0-1.218s1.09-1.218,2.435-1.218s2.435,1.09,2.435,2.435S34.967,7.566,34.295,7.566z"/>
</g>
</svg>
